<?xml version="1.0" encoding="UTF-8"?>
<svg id="Layer_2" data-name="Layer 2" xmlns="http://www.w3.org/2000/svg" viewBox="0 0 217.01 200.96">
  <defs>
    <style>
      .cls-1 {
        stroke: #fff;
        stroke-miterlimit: 10;
        stroke-width: 40px;
      }

      .cls-1, .cls-2 {
        fill: #e80087;
      }

      .cls-3 {
        fill: #fff;
      }

      .cls-3, .cls-2 {
        stroke-width: 0px;
      }
    </style>
  </defs>
  <g id="Layer_1-2" data-name="Layer 1">
    <g id="Fav-icon">
      <path class="cls-1" d="m109.87,108.83l.41-11.84c.03-.92.8-1.64,1.72-1.61l83.31,2.85c.9.03,1.6.78,1.6,1.68,0,1.07.02,2.14.08,3.22l-.02.44c-.73,17.14-6.39,32.39-16.97,45.74-10.58,13.36-23.88,22.48-39.89,27.35-10.23,3.02-21.06,4.45-32.5,4.28-11.44-.17-23.18-2.3-35.21-6.38-15.94-5.83-28.77-15.8-38.48-29.93-9.72-14.12-14.35-29.83-13.9-47.13.73-17.14,6.39-32.38,16.97-45.74,10.58-13.35,23.88-22.47,39.89-27.35,10.23-3.17,21.03-4.63,32.39-4.39,11.36.25,23.13,2.41,35.32,6.49,13.91,5.03,25.54,13.38,34.9,25.07,8.94,11.17,14.45,23.8,16.52,37.88.15,1.03-.68,1.94-1.72,1.91l-72.5-2.48c-.3-.01-.6-.11-.85-.28-2.9-1.97-6.28-3.1-10.16-3.39-.08,0-.16,0-.24,0-3.77.03-7.17.87-10.2,2.51-3.07,1.66-5.23,3.86-6.5,6.6-1.75,3.76-1.88,7.64-.4,11.65,1.08,2.83,3.09,5.13,6.04,6.92,2.94,1.79,6.32,2.75,10.13,2.88,3.54.12,6.69-.48,9.45-1.81,1.56-.75,1.04-3.11-.69-3.17l-6.92-.24c-.92-.03-1.64-.8-1.61-1.72Z"/>
      <path class="cls-2" d="m196.91,99.92c0,1.07.02,2.14.08,3.22l-.02.44c-.73,17.14-6.39,32.39-16.97,45.74-10.58,13.36-23.88,22.48-39.89,27.35-10.23,3.02-21.06,4.45-32.5,4.28-11.44-.17-23.18-2.3-35.21-6.38-15.94-5.83-28.77-15.8-38.48-29.93-9.72-14.12-14.35-29.83-13.9-47.13.73-17.14,6.39-32.38,16.97-45.74,10.58-13.35,23.88-22.47,39.89-27.35,10.23-3.17,21.03-4.63,32.39-4.39,11.36.25,23.13,2.41,35.32,6.49,13.91,5.03,25.54,13.38,34.9,25.07,8.94,11.17,14.45,23.8,16.52,37.88"/>
      <path class="cls-3" d="m113.5,65.69l5.31,20.95c.27,1.06,1.19,1.82,2.28,1.89l75.57,1.43c2.43.16,3.24,5.34,1.18,6.64l-72.29,9.52c-.92.58-1.37,1.69-1.1,2.75l5.31,20.95c.6,2.37-2.18,4.12-4.05,2.55l-16.61-13.83c-.84-.7-2.03-.78-2.95-.2l-18.29,11.52c-2.06,1.3-4.59-.8-3.68-3.07l8.02-20.07c.41-1.01.11-2.17-.73-2.87l-16.61-13.83c-1.88-1.56-.66-4.61,1.78-4.45l21.57,1.43c1.09.07,2.1-.57,2.51-1.58l8.02-20.07c.91-2.27,4.18-2.05,4.78.32Z"/>
    </g>
  </g>
</svg>