<?xml version="1.0" encoding="UTF-8"?>
<svg id="Layer_2" data-name="Layer 2" xmlns="http://www.w3.org/2000/svg" viewBox="0 0 760.46 164.71">
  <defs>
    <style>
      .cls-1 {
        fill: #fff;
      }

      .cls-1, .cls-2 {
        stroke-width: 0px;
      }

      .cls-2 {
        fill: #e80087;
      }
    </style>
  </defs>
  <g id="Layer_1-2" data-name="Layer 1">
    <g>
      <g id="Logo_tekst" data-name="Logo tekst">
        <path class="cls-1" d="m756.73,81.61c-9.38,13.41-15.41,21.79-18.41,25.63-3.13,4.01-7.63,6.68-12.55,7.56l-.97,23.96c-.21,5.45-2.52,10.49-6.51,14.2-3.82,3.57-8.75,5.5-13.94,5.5-.26,0-.51,0-.76-.01l-35-1.2c-2.92-.1-5.66-.81-8.13-1.98-3.37.82-7.28,1.49-11.92,2.05-4.36.52-9.05.79-14.17.79-4.08,0-8.44-.17-13.11-.51-12.06-.79-22.91-4.33-32.27-10.51-1.56-1.04-3.06-2.13-4.5-3.27-3.64,5.98-10.22,9.94-17.53,9.94-.23,0-.46,0-.7-.01l-36.59-1.26c-3.12-.12-6.07-.93-8.68-2.28-2.74,1.19-5.78,1.79-8.92,1.68l-36.7-1.26c-7.5-.32-13.99-4.71-17.29-11.03-5.13,3.54-10.81,6.25-17,8.12-6.75,2.08-14.06,3.14-21.66,3.14h-.97c-7.98-.1-16.22-1.58-24.5-4.42l-.6-.22c-8.84-3.35-16.5-8.44-22.86-15.17-2.67,2.02-5.5,3.83-8.48,5.4-5.21,2.75-10.59,4.65-15.98,5.65-1.96.36-3.9.66-5.8.89l-.06,1.93c-.42,11.09-9.54,19.79-20.49,19.79-.24,0-.48,0-.72-.01l-35.02-1.2c-5.49-.19-10.56-2.51-14.3-6.52-3.47-3.73-5.37-8.52-5.46-13.59l-22.6-.77c-5.52-.2-10.59-2.52-14.32-6.54-1.48-1.59-2.66-3.37-3.55-5.27-3.51,6.31-10.26,10.57-17.92,10.57-.24,0-.49,0-.73-.01l-35.02-1.2c-1.25-.05-2.47-.22-3.66-.47-.97.14-1.96.23-2.95.23-.27,0-.54,0-.81-.02l-35.06-1.2c-6.74-.26-12.59-3.8-16.13-9-4.21,2.35-8.7,4.27-13.47,5.72l-.18.06c-7.65,2.25-15.76,3.39-24.12,3.39-.45,0-.89-.01-1.34-.01-8.98-.15-18.14-1.79-27.28-4.89l-.43-.15c-13.51-4.94-24.53-13.5-32.73-25.43C3.64,96.42-.35,82.91.02,68.26v-.35c.63-14.55,5.51-27.68,14.52-39.04,8.89-11.22,20.26-19.01,33.79-23.13,8.08-2.5,16.74-3.69,25.69-3.51,8.83.2,17.95,1.86,27.15,4.93l.45.16c5.73,2.07,11.03,4.84,15.88,8.25.38-.54.76-1.08,1.18-1.61,4.63-5.8,10.6-9.89,17.75-12.15l.35-.1c8.59-2.54,17.61-2.24,26.11.86,7.01,2.59,12.94,7.22,17.23,13.4,1.1,1.58,2.06,3.23,2.88,4.94l26.17.89c2.06.08,4.04.45,5.89,1.08,3.34-.66,6.75-.87,10.2-.64.48-5.03,2.79-9.77,6.49-13.18,4-3.69,9.21-5.6,14.64-5.41l34.98,1.2c5.53.2,10.6,2.53,14.33,6.54,3.46,3.73,5.36,8.51,5.44,13.56,22.16.78,27.28,1.02,29.13,1.13,8.33.32,15.96,1.56,22.69,3.7,7.31,2.34,13.53,5.47,18.53,9.3,1.21.94,2.36,1.92,3.47,2.93,6.35-5.47,13.68-9.51,21.91-12.03l.1-.03c7.16-2.16,14.82-3.21,22.73-3.11,8,.1,16.24,1.58,24.5,4.41l.42.15c2.49.92,4.88,1.98,7.18,3.17,3.66-2.69,8.18-4.15,12.78-4.02l40.12,1.38c5.8.18,11.08,2.84,14.73,6.97l1.37.05,4.24.15,5.05.17c3.92-3.9,9.37-6.18,15.25-5.96l40,1.38c4.95.15,9.72,2.18,13.34,5.57,1.38-.5,2.78-.98,4.26-1.42,7.68-2.29,16.21-3.24,25.36-2.81,12.39.52,22.54,2.57,30.8,6.22,3.7-3.01,8.46-4.76,13.61-4.57l35,1.2c2.05.07,4.04.44,5.92,1.08,4.33-.86,8.74-.96,13.23-.32,5.82.75,11.38,2.78,16.54,6.05,4.54,2.87,8.05,5.84,10.72,9.07l1.68,2.05c5.85,7.12,6.22,17.28.93,24.8Z"/>
        <g id="Roze_tekst" data-name="Roze tekst">
          <g>
            <path class="cls-2" d="m73.97,75.56l.24-7.11c.02-.55.48-.98,1.03-.97l50.03,1.71c.54.02.96.47.96,1.01,0,.64.01,1.29.05,1.93v.26c-.45,10.29-3.85,19.45-10.2,27.47-6.35,8.02-14.34,13.5-23.95,16.43-6.14,1.82-12.65,2.67-19.51,2.57-6.87-.1-13.92-1.38-21.14-3.83-9.57-3.5-17.27-9.49-23.11-17.97-5.83-8.48-8.62-17.91-8.35-28.3.44-10.29,3.84-19.45,10.19-27.47,6.35-8.02,14.34-13.49,23.95-16.43,6.14-1.9,12.63-2.78,19.45-2.64,6.82.15,13.89,1.45,21.21,3.9,8.35,3.02,15.34,8.04,20.96,15.06,5.37,6.71,8.67,14.29,9.92,22.75.09.62-.41,1.17-1.03,1.14l-43.54-1.49c-.18,0-.36-.07-.51-.17-1.74-1.18-3.77-1.86-6.1-2.04-.05,0-.1,0-.14,0-2.26.02-4.31.52-6.13,1.51-1.84.99-3.14,2.32-3.9,3.96-1.05,2.26-1.13,4.59-.24,7,.65,1.7,1.85,3.08,3.62,4.15,1.77,1.07,3.8,1.65,6.09,1.73,2.13.07,4.02-.29,5.68-1.09.94-.45.62-1.87-.41-1.9l-4.15-.14c-.55-.02-.98-.48-.97-1.03Z"/>
            <path class="cls-2" d="m127.89,117.71l2-58.32c.02-.55.48-.98,1.03-.97l34.04,1.17c.55.02.98.48.97,1.03l-2,58.32c-.02.55-.48.98-1.03.97l-34.04-1.17c-.55-.02-.98-.48-.97-1.03Zm3.08-82.15c.12-3.43,1.23-6.48,3.35-9.14,2.12-2.66,4.82-4.5,8.12-5.54,4.54-1.34,9.07-1.19,13.6.47,3.13,1.16,5.68,3.17,7.66,6.01,1.97,2.84,2.9,5.98,2.78,9.41s-1.24,6.61-3.36,9.27c-2.12,2.66-4.82,4.46-8.11,5.4-4.54,1.43-9.03,1.32-13.47-.33-3.22-1.17-5.82-3.17-7.79-6.02-1.97-2.84-2.9-6.02-2.78-9.54Z"/>
            <path class="cls-2" d="m205.27,121.36l-34.04-1.17c-.55-.02-.98-.48-.97-1.03l2.66-77.59c.02-.55.48-.98,1.03-.97l34.04,1.17c.55.02.98.48.97,1.03l-.09,2.72c-.03.87.98,1.35,1.65.79,1.01-.83,2.41-1.66,4.23-2.46,3.49-1.55,7.12-2.05,10.89-1.48,2.98.37,5.83,1.41,8.55,3.13,2.72,1.72,4.71,3.36,5.98,4.9l1.42,1.72c.29.35.3.85.04,1.22-8.59,12.27-14.31,20.25-17.16,23.95-.41.54-1.23.51-1.61-.05-1.64-2.42-3.18-4.3-4.63-5.65-1.66-1.55-3.09-2.42-4.27-2.59-1.18-.17-2.21.08-3.07.75-.86.68-1.51,1.6-1.95,2.77-.44,1.17-.72,2.42-.85,3.74l-1.77,44.14c-.02.55-.48.98-1.03.96Z"/>
            <path class="cls-2" d="m276.8,123.81l-34.04-1.17c-.55-.02-.98-.48-.97-1.03l3.32-97c.02-.55.48-.98,1.03-.97l34.04,1.17c.55.02.98.48.97,1.03l-3.32,97c-.02.55-.48.98-1.03.97Z"/>
            <path class="cls-2" d="m329.23,46.05c6.69.23,12.58,1.16,17.68,2.79,5.1,1.63,9.23,3.67,12.41,6.11,3.17,2.44,5.76,5.35,7.76,8.72,2,3.37,3.35,6.81,4.07,10.32.72,3.51,1.01,7.28.87,11.33-.2,5.9-1.22,11.15-3.05,15.75-1.83,4.61-4.14,8.25-6.92,10.93-2.78,2.68-5.9,4.93-9.35,6.75-3.45,1.82-6.89,3.05-10.3,3.68-3.41.63-6.66,1.01-9.75,1.12-3.09.12-5.64.03-7.66-.26-1.18-.17-2.13-.35-2.86-.55-.62-.17-1.23.29-1.25.93l-.69,20.06c-.02.55-.48.98-1.03.97l-34.04-1.17c-.55-.02-.98-.48-.97-1.03l3.32-97c.02-.55.49-.98,1.04-.96,24.88.85,38.44,1.36,40.7,1.53Zm4.42,42.7c1.14-1.02,1.73-2.3,1.78-3.84s-.45-2.86-1.52-3.95c-1.07-1.09-2.34-1.67-3.84-1.72l-5.73-.2c-.55-.02-1.01.41-1.03.97l-.31,8.96c-.02.55.41,1.01.97,1.03l5.73.2c1.5.05,2.81-.43,3.95-1.45Z"/>
            <path class="cls-2" d="m464.78,88.65v.13c-.09,8.98-2.73,17.06-7.92,24.24-5.2,7.18-11.93,12.17-20.21,14.99-5.11,1.76-10.61,2.71-16.51,2.84-5.9.13-12.02-.77-18.36-2.71-8.28-2.82-15.06-7.81-20.34-14.99-5.28-7.18-7.97-15.3-8.06-24.37.09-8.98,2.73-17.04,7.92-24.17,5.19-7.13,11.89-12.1,20.07-14.92,5.19-1.76,10.74-2.71,16.64-2.84,5.9-.13,12.02.77,18.36,2.71,8.28,2.73,15.06,7.68,20.34,14.86,5.28,7.18,7.97,15.25,8.06,24.24Z"/>
            <path class="cls-2" d="m522.97,92.21l-.15.39c-4.17,9.46-7.33,22.42-9.48,38.86-.03.25-.25.45-.51.44l-36.59-1.25c-.25,0-.46-.21-.48-.46-2.57-29.33-6.66-55.68-12.26-79.04-.08-.32.17-.62.5-.61l40.08,1.37c.25,0,.46.21.48.46l3.31,40.49c.04.54.8.63.98.12,3.96-11.86,6.31-23.1,7.05-33.71.02-.27.24-.47.51-.46l15.41.53c.27,0,.48.23.48.49,0,10.64,1.58,22.01,4.72,34.11.14.53.9.48.98-.05l6.07-40.17c.04-.25.26-.43.51-.43l40.09,1.37c.33.01.56.33.46.64-7.2,23.09-13.08,49.1-17.64,78.02-.04.25-.26.43-.51.42l-36.6-1.25c-.26,0-.46-.21-.48-.47-1.1-16.82-3.41-30.1-6.92-39.83Z"/>
            <path class="cls-2" d="m622.72,108.31c-1.58-.23-2.38.18-2.42,1.24s.6,1.78,1.91,2.18c.35.1.74.16,1.18.17,11.67.83,25.01-1.05,40.02-5.64.35-.11.69.18.64.54l-3.86,27.35c-.02.18-.13.32-.3.39-2.8,1.18-7.37,2.15-13.72,2.91-6.55.79-14.39.85-23.53.18-8.62-.56-16.15-2.98-22.61-7.25-6.46-4.27-11.28-9.61-14.45-16.02-3.17-6.41-4.68-13.26-4.52-20.57.02-3.08.46-6.24,1.32-9.47.86-3.23,2.41-6.66,4.65-10.28,2.24-3.62,5.01-6.79,8.32-9.49,3.31-2.71,7.74-4.89,13.31-6.55,5.56-1.66,11.82-2.32,18.77-2,12.23.51,21.42,2.72,27.59,6.63,6.16,3.91,9.63,10.07,10.4,18.46.31,3.71-.11,7.09-1.27,10.13-1.16,3.05-2.83,5.52-5.01,7.43s-4.68,3.58-7.51,5.03c-2.82,1.45-5.72,2.45-8.69,3.01-2.97.56-5.83,1.06-8.57,1.49-2.75.43-5.13.57-7.15.42-2.02-.16-3.52-.25-4.48-.29Zm2.88-30.03c-2.56.09-4.48,1.52-5.76,4.3-1.2,2.59-1.34,5.09-.43,7.52.11.29.46.4.73.25,5.07-2.89,7.91-4.54,8.53-4.95.91-.76,1.38-1.71,1.42-2.86s-.37-2.13-1.22-2.95c-1.03-.92-2.11-1.35-3.26-1.3Z"/>
            <path class="cls-2" d="m704.31,138.46l-35.04-1.2c-.28,0-.49-.24-.48-.52l2.69-78.59c0-.28.24-.49.52-.48l35.04,1.2c.28,0,.49.24.48.52l-.15,4.44c-.02.47.56.69.88.34.99-1.1,2.67-2.18,5.04-3.23,3.49-1.55,7.12-2.05,10.89-1.48,2.98.37,5.83,1.41,8.55,3.13,2.72,1.72,4.71,3.36,5.98,4.9l1.66,2.02c.14.17.15.42.02.61-9.17,13.1-15.11,21.37-17.81,24.81-.21.27-.62.24-.81-.05-1.78-2.69-3.45-4.76-5-6.21-1.66-1.55-3.09-2.42-4.27-2.59-1.18-.17-2.21.08-3.07.75-.86.68-1.51,1.6-1.94,2.77-.44,1.17-.72,2.42-.86,3.74l-1.79,44.64c-.01.27-.24.49-.52.48Z"/>
          </g>
        </g>
      </g>
      <path id="ster" class="cls-1" d="m418.55,74.42l4.08,7.93c.21.4.65.62,1.09.55l8.81-1.43c.99-.16,1.61,1.04.9,1.76l-6.28,6.33c-.32.32-.39.81-.19,1.21l4.08,7.93c.46.9-.49,1.86-1.39,1.4l-7.97-4.02c-.4-.2-.89-.12-1.21.2l-6.28,6.33c-.71.72-1.92.1-1.77-.89l1.36-8.82c.07-.45-.16-.88-.56-1.09l-7.97-4.02c-.9-.45-.69-1.79.3-1.95l8.81-1.43c.44-.07.79-.42.86-.87l1.36-8.82c.15-1,1.49-1.21,1.95-.32Z"/>
    </g>
  </g>
</svg>